# xmcd CD database file
#
# Track frame offsets:
#	182
#	15655
#	28792
#	40922
#	53747
#	66507
#	80627
#	94167
#	108775
#	120542
#
# Disc length: 1787 seconds
#
# Revision: 0
# Processed by: cddbd v1.5.2PL0 Copyright (c) Steve Scherf et al.
# Submitted via: CDex 1.60beta1
#
DISCID=7e06f90a
DTITLE=Jeff Copley - Evergreen
DYEAR=1995
DGENRE=Country
TTITLE0=Evergreen
TTITLE1=Out Where God Is
TTITLE2=Rocks And Roses
TTITLE3=Turnaround
TTITLE4=Saved By The Radio
TTITLE5=She Calls Everybody Baby
TTITLE6=Below My Raising
TTITLE7=Just Beginning To Rain
TTITLE8=Rock And Roll Heart
TTITLE9=Big Time Burn
EXTD=YEAR: 1995
EXTT0=
EXTT1=
EXTT2=
EXTT3=
EXTT4=
EXTT5=
EXTT6=
EXTT7=
EXTT8=
EXTT9=
PLAYORDER=
